<svg preserveAspectRatio="none" width="100%" height="100%" overflow="visible" style="display: block;" viewBox="0 0 20 20" fill="none" xmlns="http://www.w3.org/2000/svg">
<g id="IconGithub">
<path id="Vector" d="M10 1.62557C14.6042 1.62557 18.3333 5.35473 18.3333 9.95892C18.3329 11.7049 17.7849 13.4069 16.7665 14.8252C15.7481 16.2435 14.3106 17.3067 12.6562 17.8652C12.2396 17.9485 12.0833 17.6881 12.0833 17.4693C12.0833 17.1881 12.0937 16.2922 12.0937 15.1777C12.0937 14.3964 11.8333 13.8964 11.5312 13.636C13.3854 13.4277 15.3333 12.7193 15.3333 9.52142C15.3333 8.60475 15.0104 7.86515 14.4792 7.28182C14.5625 7.07348 14.8542 6.21932 14.3958 5.07348C14.3958 5.07348 13.6979 4.84432 12.1042 5.92765C11.4375 5.74015 10.7292 5.6464 10.0208 5.6464C9.3125 5.6464 8.60417 5.74015 7.9375 5.92765C6.34375 4.85473 5.64583 5.07348 5.64583 5.07348C5.1875 6.21932 5.47917 7.07348 5.5625 7.28182C5.03125 7.86515 4.70833 8.61517 4.70833 9.52142C4.70833 12.7089 6.64583 13.4277 8.5 13.636C8.26042 13.8443 8.04167 14.2089 7.96875 14.7506C7.48958 14.9693 6.29167 15.3235 5.54167 14.0631C5.38542 13.8131 4.91667 13.1985 4.26042 13.2089C3.5625 13.2193 3.97917 13.6048 4.27083 13.761C4.625 13.9589 5.03125 14.6985 5.125 14.9381C5.29167 15.4068 5.83333 16.3027 7.92708 15.9173C7.92708 16.6152 7.9375 17.2714 7.9375 17.4693C7.9375 17.6881 7.78125 17.9381 7.36458 17.8652C5.70483 17.3127 4.26118 16.2517 3.23842 14.8325C2.21567 13.4133 1.66575 11.7082 1.66667 9.95892C1.66667 5.35473 5.39583 1.62557 10 1.62557Z" fill="var(--fill-0, #1C1917)"/>
</g>
</svg>
