<svg preserveAspectRatio="none" width="100%" height="100%" overflow="visible" style="display: block;" viewBox="0 0 20 20" fill="none" xmlns="http://www.w3.org/2000/svg">
<g id="IconGoogle">
<path id="Vector" d="M17.987 10.1894C17.987 9.5985 17.934 9.03025 17.8355 8.48483H9.987V11.7121H14.4718C14.2748 12.75 13.6839 13.6288 12.7976 14.2197V16.3182H15.5022C17.0779 14.8636 17.987 12.7272 17.987 10.1894Z" fill="var(--fill-0, #1C1917)"/>
<path id="Vector_2" d="M9.985 18.3333C12.235 18.3333 14.1213 17.5909 15.5002 16.3182L12.7956 14.2197C12.0532 14.7197 11.1062 15.0228 9.985 15.0228C7.81831 15.0228 5.97739 13.5606 5.3183 11.5909H2.54557V13.7424C3.91678 16.4622 6.7274 18.3333 9.985 18.3333Z" fill="var(--fill-0, #1C1917)"/>
<path id="Vector_3" d="M5.32032 11.5833C5.15365 11.0833 5.05517 10.553 5.05517 10C5.05517 9.44692 5.15365 8.91667 5.32032 8.41667V6.26513H2.54758C1.9794 7.38634 1.65365 8.6515 1.65365 10C1.65365 11.3485 1.9794 12.6137 2.54758 13.7348L4.70668 12.053L5.32032 11.5833Z" fill="var(--fill-0, #1C1917)"/>
<path id="Vector_4" d="M9.985 4.98485C11.2123 4.98485 12.3032 5.40909 13.1743 6.22728L15.5607 3.84091C14.1137 2.49242 12.235 1.66667 9.985 1.66667C6.7274 1.66667 3.91678 3.53788 2.54557 6.26516L5.3183 8.41667C5.97739 6.44698 7.81831 4.98485 9.985 4.98485Z" fill="var(--fill-0, #1C1917)"/>
</g>
</svg>
