<svg preserveAspectRatio="none" width="100%" height="100%" overflow="visible" style="display: block;" viewBox="0 0 18 18" fill="none" xmlns="http://www.w3.org/2000/svg">
<g id="IconGithub">
<path id="Vector" d="M9 1.46301C13.1437 1.46301 16.5 4.81926 16.5 8.96302C16.4996 10.5344 16.0064 12.0662 15.0899 13.3426C14.1733 14.6191 12.8795 15.576 11.3906 16.0786C11.0156 16.1536 10.875 15.9193 10.875 15.7224C10.875 15.4693 10.8844 14.663 10.8844 13.6599C10.8844 12.9568 10.65 12.5068 10.3781 12.2724C12.0469 12.0849 13.8 11.4474 13.8 8.56927C13.8 7.74427 13.5094 7.07863 13.0312 6.55363C13.1062 6.36613 13.3687 5.59738 12.9562 4.56613C12.9562 4.56613 12.3281 4.35989 10.8937 5.33489C10.2937 5.16614 9.65625 5.08176 9.01875 5.08176C8.38125 5.08176 7.74375 5.16614 7.14375 5.33489C5.70937 4.36926 5.08125 4.56613 5.08125 4.56613C4.66875 5.59738 4.93125 6.36613 5.00625 6.55363C4.52813 7.07863 4.2375 7.75365 4.2375 8.56927C4.2375 11.438 5.98125 12.0849 7.65 12.2724C7.43437 12.4599 7.2375 12.788 7.17188 13.2755C6.74063 13.4724 5.6625 13.7911 4.9875 12.6568C4.84688 12.4318 4.425 11.8786 3.83438 11.888C3.20625 11.8974 3.58125 12.2443 3.84375 12.3849C4.1625 12.563 4.52813 13.2286 4.6125 13.4443C4.7625 13.8661 5.25 14.6724 7.13437 14.3255C7.13437 14.9536 7.14375 15.5443 7.14375 15.7224C7.14375 15.9193 7.00312 16.1443 6.62812 16.0786C5.13435 15.5814 3.83507 14.6265 2.91458 13.3492C1.99411 12.072 1.49917 10.5373 1.5 8.96302C1.5 4.81926 4.85625 1.46301 9 1.46301Z" fill="var(--fill-0, #1C1917)"/>
</g>
</svg>
