<svg preserveAspectRatio="none" width="100%" height="100%" overflow="visible" style="display: block;" viewBox="0 0 18 18" fill="none" xmlns="http://www.w3.org/2000/svg">
<g id="IconGoogle">
<path id="Vector" d="M16.1883 9.17047C16.1883 8.63865 16.1406 8.12722 16.0519 7.63635H8.9883V10.5409H13.0246C12.8473 11.475 12.3155 12.2659 11.5178 12.7977V14.6864H13.9519C15.3701 13.3772 16.1883 11.4545 16.1883 9.17047Z" fill="var(--fill-0, #FAFAF9)" style="fill:#FAFAF9;fill:color(display-p3 0.9804 0.9804 0.9765);fill-opacity:1;"/>
<path id="Vector_2" d="M8.9865 16.5C11.0115 16.5 12.7092 15.8318 13.9502 14.6864L11.516 12.7977C10.8479 13.2477 9.99555 13.5205 8.9865 13.5205C7.03648 13.5205 5.37965 12.2045 4.78647 10.4318H2.29102V12.3682C3.52511 14.816 6.05466 16.5 8.9865 16.5Z" fill="var(--fill-0, #FAFAF9)" style="fill:#FAFAF9;fill:color(display-p3 0.9804 0.9804 0.9765);fill-opacity:1;"/>
<path id="Vector_3" d="M4.78828 10.425C4.63828 9.975 4.54965 9.4977 4.54965 9C4.54965 8.50223 4.63828 8.025 4.78828 7.575V5.63862H2.29283C1.78146 6.64771 1.48829 7.78635 1.48829 9C1.48829 10.2136 1.78146 11.3523 2.29283 12.3614L4.23601 10.8477L4.78828 10.425Z" fill="var(--fill-0, #FAFAF9)" style="fill:#FAFAF9;fill:color(display-p3 0.9804 0.9804 0.9765);fill-opacity:1;"/>
<path id="Vector_4" d="M8.9865 4.48637C10.091 4.48637 11.0729 4.86818 11.8569 5.60455L14.0047 3.45682C12.7024 2.24318 11.0115 1.5 8.9865 1.5C6.05466 1.5 3.52511 3.18409 2.29102 5.63864L4.78647 7.575C5.37965 5.80228 7.03648 4.48637 8.9865 4.48637Z" fill="var(--fill-0, #FAFAF9)" style="fill:#FAFAF9;fill:color(display-p3 0.9804 0.9804 0.9765);fill-opacity:1;"/>
</g>
</svg>
