<svg preserveAspectRatio="none" width="100%" height="100%" overflow="visible" style="display: block;" viewBox="0 0 87 5" fill="none" xmlns="http://www.w3.org/2000/svg">
<g id="***************">
<path d="M1.47 4.704L0.742 4.228L1.68 2.8H0V1.904H1.68L0.742 0.476001L1.47 0L2.394 1.498L3.332 0L4.06 0.476001L3.108 1.904H4.788V2.8H3.108L4.06 4.228L3.332 4.704L2.394 3.22L1.47 4.704Z" fill="var(--fill-0, #A8A29E)"/>
<path d="M7.32562 4.704L6.59763 4.228L7.53562 2.8H5.85563V1.904H7.53562L6.59763 0.476001L7.32562 0L8.24963 1.498L9.18762 0L9.91563 0.476001L8.96362 1.904H10.6436V2.8H8.96362L9.91563 4.228L9.18762 4.704L8.24963 3.22L7.32562 4.704Z" fill="var(--fill-0, #A8A29E)"/>
<path d="M13.1813 4.704L12.4532 4.228L13.3913 2.8H11.7113V1.904H13.3913L12.4532 0.476001L13.1813 0L14.1053 1.498L15.0433 0L15.7713 0.476001L14.8193 1.904H16.4993V2.8H14.8193L15.7713 4.228L15.0433 4.704L14.1053 3.22L13.1813 4.704Z" fill="var(--fill-0, #A8A29E)"/>
<path d="M19.0369 4.704L18.3089 4.228L19.2469 2.8H17.5669V1.904H19.2469L18.3089 0.476001L19.0369 0L19.9609 1.498L20.8989 0L21.6269 0.476001L20.6749 1.904H22.3549V2.8H20.6749L21.6269 4.228L20.8989 4.704L19.9609 3.22L19.0369 4.704Z" fill="var(--fill-0, #A8A29E)"/>
<path d="M24.8925 4.704L24.1645 4.228L25.1025 2.8H23.4225V1.904H25.1025L24.1645 0.476001L24.8925 0L25.8165 1.498L26.7545 0L27.4825 0.476001L26.5305 1.904H28.2105V2.8H26.5305L27.4825 4.228L26.7545 4.704L25.8165 3.22L24.8925 4.704Z" fill="var(--fill-0, #A8A29E)"/>
<path d="M30.7481 4.704L30.0201 4.228L30.9581 2.8H29.2781V1.904H30.9581L30.0201 0.476001L30.7481 0L31.6721 1.498L32.6101 0L33.3381 0.476001L32.3861 1.904H34.0661V2.8H32.3861L33.3381 4.228L32.6101 4.704L31.6721 3.22L30.7481 4.704Z" fill="var(--fill-0, #A8A29E)"/>
<path d="M36.6038 4.704L35.8758 4.228L36.8138 2.8H35.1338V1.904H36.8138L35.8758 0.476001L36.6038 0L37.5278 1.498L38.4658 0L39.1938 0.476001L38.2418 1.904H39.9217V2.8H38.2418L39.1938 4.228L38.4658 4.704L37.5278 3.22L36.6038 4.704Z" fill="var(--fill-0, #A8A29E)"/>
<path d="M42.4594 4.704L41.7314 4.228L42.6694 2.8H40.9894V1.904H42.6694L41.7314 0.476001L42.4594 0L43.3834 1.498L44.3214 0L45.0494 0.476001L44.0974 1.904H45.7774V2.8H44.0974L45.0494 4.228L44.3214 4.704L43.3834 3.22L42.4594 4.704Z" fill="var(--fill-0, #A8A29E)"/>
<path d="M48.315 4.704L47.587 4.228L48.525 2.8H46.845V1.904H48.525L47.587 0.476001L48.315 0L49.239 1.498L50.177 0L50.905 0.476001L49.953 1.904H51.633V2.8H49.953L50.905 4.228L50.177 4.704L49.239 3.22L48.315 4.704Z" fill="var(--fill-0, #A8A29E)"/>
<path d="M54.1706 4.704L53.4426 4.228L54.3806 2.8H52.7006V1.904H54.3806L53.4426 0.476001L54.1706 0L55.0946 1.498L56.0326 0L56.7606 0.476001L55.8086 1.904H57.4886V2.8H55.8086L56.7606 4.228L56.0326 4.704L55.0946 3.22L54.1706 4.704Z" fill="var(--fill-0, #A8A29E)"/>
<path d="M60.0263 4.704L59.2983 4.228L60.2363 2.8H58.5563V1.904H60.2363L59.2983 0.476001L60.0263 0L60.9503 1.498L61.8883 0L62.6163 0.476001L61.6643 1.904H63.3442V2.8H61.6643L62.6163 4.228L61.8883 4.704L60.9503 3.22L60.0263 4.704Z" fill="var(--fill-0, #A8A29E)"/>
<path d="M65.8819 4.704L65.1539 4.228L66.0919 2.8H64.4119V1.904H66.0919L65.1539 0.476001L65.8819 0L66.8059 1.498L67.7439 0L68.4719 0.476001L67.5199 1.904H69.1999V2.8H67.5199L68.4719 4.228L67.7439 4.704L66.8059 3.22L65.8819 4.704Z" fill="var(--fill-0, #A8A29E)"/>
<path d="M71.7375 4.704L71.0095 4.228L71.9475 2.8H70.2675V1.904H71.9475L71.0095 0.476001L71.7375 0L72.6615 1.498L73.5995 0L74.3275 0.476001L73.3755 1.904H75.0555V2.8H73.3755L74.3275 4.228L73.5995 4.704L72.6615 3.22L71.7375 4.704Z" fill="var(--fill-0, #A8A29E)"/>
<path d="M77.5931 4.704L76.8651 4.228L77.8031 2.8H76.1231V1.904H77.8031L76.8651 0.476001L77.5931 0L78.5171 1.498L79.4551 0L80.1831 0.476001L79.2311 1.904H80.9111V2.8H79.2311L80.1831 4.228L79.4551 4.704L78.5171 3.22L77.5931 4.704Z" fill="var(--fill-0, #A8A29E)"/>
<path d="M83.4488 4.704L82.7207 4.228L83.6588 2.8H81.9788V1.904H83.6588L82.7207 0.476001L83.4488 0L84.3727 1.498L85.3108 0L86.0387 0.476001L85.0868 1.904H86.7668V2.8H85.0868L86.0387 4.228L85.3108 4.704L84.3727 3.22L83.4488 4.704Z" fill="var(--fill-0, #A8A29E)"/>
</g>
</svg>
